<svg xmlns="http://www.w3.org/2000/svg" xmlns:xlink="http://www.w3.org/1999/xlink" width="200" zoomAndPan="magnify" viewBox="0 0 150 149.999998" height="200" preserveAspectRatio="xMidYMid meet" version="1.2"><g id="02e0275bb0"><path style=" stroke:none;fill-rule:nonzero;fill:#f88379;fill-opacity:1;" d="M 10 20 C 10 20.328125 9.96875 20.652344 9.902344 20.976562 C 9.839844 21.296875 9.746094 21.609375 9.621094 21.914062 C 9.492188 22.214844 9.339844 22.503906 9.15625 22.777344 C 8.976562 23.050781 8.769531 23.304688 8.535156 23.535156 C 8.304688 23.769531 8.050781 23.976562 7.777344 24.15625 C 7.503906 24.339844 7.214844 24.492188 6.914062 24.621094 C 6.609375 24.746094 6.296875 24.839844 5.976562 24.902344 C 5.652344 24.96875 5.328125 25 5 25 C 4.671875 25 4.347656 24.96875 4.023438 24.902344 C 3.703125 24.839844 3.390625 24.746094 3.085938 24.621094 C 2.785156 24.492188 2.496094 24.339844 2.222656 24.15625 C 1.949219 23.976562 1.695312 23.769531 1.464844 23.535156 C 1.230469 23.304688 1.023438 23.050781 0.84375 22.777344 C 0.660156 22.503906 0.507812 22.214844 0.378906 21.914062 C 0.253906 21.609375 0.160156 21.296875 0.0976562 20.976562 C 0.03125 20.652344 0 20.328125 0 20 C 0 19.671875 0.03125 19.347656 0.0976562 19.023438 C 0.160156 18.703125 0.253906 18.390625 0.378906 18.085938 C 0.507812 17.785156 0.660156 17.496094 0.84375 17.222656 C 1.023438 16.949219 1.230469 16.695312 1.464844 16.464844 C 1.695312 16.230469 1.949219 16.023438 2.222656 15.84375 C 2.496094 15.660156 2.785156 15.507812 3.085938 15.378906 C 3.390625 15.253906 3.703125 15.160156 4.023438 15.097656 C 4.347656 15.03125 4.671875 15 5 15 C 5.328125 15 5.652344 15.03125 5.976562 15.097656 C 6.296875 15.160156 6.609375 15.253906 6.914062 15.378906 C 7.214844 15.507812 7.503906 15.660156 7.777344 15.84375 C 8.050781 16.023438 8.304688 16.230469 8.535156 16.464844 C 8.769531 16.695312 8.976562 16.949219 9.15625 17.222656 C 9.339844 17.496094 9.492188 17.785156 9.621094 18.085938 C 9.746094 18.390625 9.839844 18.703125 9.902344 19.023438 C 9.96875 19.347656 10 19.671875 10 20 Z M 10 20 "/><path style=" stroke:none;fill-rule:nonzero;fill:#f88379;fill-opacity:1;" d="M 40 20 C 40 20.328125 39.96875 20.652344 39.902344 20.976562 C 39.839844 21.296875 39.746094 21.609375 39.621094 21.914062 C 39.492188 22.214844 39.339844 22.503906 39.15625 22.777344 C 38.976562 23.050781 38.769531 23.304688 38.535156 23.535156 C 38.304688 23.769531 38.050781 23.976562 37.777344 24.15625 C 37.503906 24.339844 37.214844 24.492188 36.914062 24.621094 C 36.609375 24.746094 36.296875 24.839844 35.976562 24.902344 C 35.652344 24.96875 35.328125 25 35 25 C 34.671875 25 34.347656 24.96875 34.023438 24.902344 C 33.703125 24.839844 33.390625 24.746094 33.085938 24.621094 C 32.785156 24.492188 32.496094 24.339844 32.222656 24.15625 C 31.949219 23.976562 31.695312 23.769531 31.464844 23.535156 C 31.230469 23.304688 31.023438 23.050781 30.84375 22.777344 C 30.660156 22.503906 30.507812 22.214844 30.378906 21.914062 C 30.253906 21.609375 30.160156 21.296875 30.097656 20.976562 C 30.03125 20.652344 30 20.328125 30 20 C 30 19.671875 30.03125 19.347656 30.097656 19.023438 C 30.160156 18.703125 30.253906 18.390625 30.378906 18.085938 C 30.507812 17.785156 30.660156 17.496094 30.84375 17.222656 C 31.023438 16.949219 31.230469 16.695312 31.464844 16.464844 C 31.695312 16.230469 31.949219 16.023438 32.222656 15.84375 C 32.496094 15.660156 32.785156 15.507812 33.085938 15.378906 C 33.390625 15.253906 33.703125 15.160156 34.023438 15.097656 C 34.347656 15.03125 34.671875 15 35 15 C 35.328125 15 35.652344 15.03125 35.976562 15.097656 C 36.296875 15.160156 36.609375 15.253906 36.914062 15.378906 C 37.214844 15.507812 37.503906 15.660156 37.777344 15.84375 C 38.050781 16.023438 38.304688 16.230469 38.535156 16.464844 C 38.769531 16.695312 38.976562 16.949219 39.15625 17.222656 C 39.339844 17.496094 39.492188 17.785156 39.621094 18.085938 C 39.746094 18.390625 39.839844 18.703125 39.902344 19.023438 C 39.96875 19.347656 40 19.671875 40 20 Z M 40 20 "/><path style=" stroke:none;fill-rule:nonzero;fill:#f88379;fill-opacity:1;" d="M 70 20 C 70 20.328125 69.96875 20.652344 69.902344 20.976562 C 69.839844 21.296875 69.746094 21.609375 69.621094 21.914062 C 69.492188 22.214844 69.339844 22.503906 69.15625 22.777344 C 68.976562 23.050781 68.769531 23.304688 68.535156 23.535156 C 68.304688 23.769531 68.050781 23.976562 67.777344 24.15625 C 67.503906 24.339844 67.214844 24.492188 66.914062 24.621094 C 66.609375 24.746094 66.296875 24.839844 65.976562 24.902344 C 65.652344 24.96875 65.328125 25 65 25 C 64.671875 25 64.347656 24.96875 64.023438 24.902344 C 63.703125 24.839844 63.390625 24.746094 63.085938 24.621094 C 62.785156 24.492188 62.496094 24.339844 62.222656 24.15625 C 61.949219 23.976562 61.695312 23.769531 61.464844 23.535156 C 61.230469 23.304688 61.023438 23.050781 60.84375 22.777344 C 60.660156 22.503906 60.507812 22.214844 60.378906 21.914062 C 60.253906 21.609375 60.160156 21.296875 60.097656 20.976562 C 60.03125 20.652344 60 20.328125 60 20 C 60 19.671875 60.03125 19.347656 60.097656 19.023438 C 60.160156 18.703125 60.253906 18.390625 60.378906 18.085938 C 60.507812 17.785156 60.660156 17.496094 60.84375 17.222656 C 61.023438 16.949219 61.230469 16.695312 61.464844 16.464844 C 61.695312 16.230469 61.949219 16.023438 62.222656 15.84375 C 62.496094 15.660156 62.785156 15.507812 63.085938 15.378906 C 63.390625 15.253906 63.703125 15.160156 64.023438 15.097656 C 64.347656 15.03125 64.671875 15 65 15 C 65.328125 15 65.652344 15.03125 65.976562 15.097656 C 66.296875 15.160156 66.609375 15.253906 66.914062 15.378906 C 67.214844 15.507812 67.503906 15.660156 67.777344 15.84375 C 68.050781 16.023438 68.304688 16.230469 68.535156 16.464844 C 68.769531 16.695312 68.976562 16.949219 69.15625 17.222656 C 69.339844 17.496094 69.492188 17.785156 69.621094 18.085938 C 69.746094 18.390625 69.839844 18.703125 69.902344 19.023438 C 69.96875 19.347656 70 19.671875 70 20 Z M 70 20 "/><path style=" stroke:none;fill-rule:nonzero;fill:#f88379;fill-opacity:1;" d="M 100 20 C 100 20.328125 99.96875 20.652344 99.902344 20.976562 C 99.839844 21.296875 99.746094 21.609375 99.621094 21.914062 C 99.492188 22.214844 99.339844 22.503906 99.15625 22.777344 C 98.976562 23.050781 98.769531 23.304688 98.535156 23.535156 C 98.304688 23.769531 98.050781 23.976562 97.777344 24.15625 C 97.503906 24.339844 97.214844 24.492188 96.914062 24.621094 C 96.609375 24.746094 96.296875 24.839844 95.976562 24.902344 C 95.652344 24.96875 95.328125 25 95 25 C 94.671875 25 94.347656 24.96875 94.023438 24.902344 C 93.703125 24.839844 93.390625 24.746094 93.085938 24.621094 C 92.785156 24.492188 92.496094 24.339844 92.222656 24.15625 C 91.949219 23.976562 91.695312 23.769531 91.464844 23.535156 C 91.230469 23.304688 91.023438 23.050781 90.84375 22.777344 C 90.660156 22.503906 90.507812 22.214844 90.378906 21.914062 C 90.253906 21.609375 90.160156 21.296875 90.097656 20.976562 C 90.03125 20.652344 90 20.328125 90 20 C 90 19.671875 90.03125 19.347656 90.097656 19.023438 C 90.160156 18.703125 90.253906 18.390625 90.378906 18.085938 C 90.507812 17.785156 90.660156 17.496094 90.84375 17.222656 C 91.023438 16.949219 91.230469 16.695312 91.464844 16.464844 C 91.695312 16.230469 91.949219 16.023438 92.222656 15.84375 C 92.496094 15.660156 92.785156 15.507812 93.085938 15.378906 C 93.390625 15.253906 93.703125 15.160156 94.023438 15.097656 C 94.347656 15.03125 94.671875 15 95 15 C 95.328125 15 95.652344 15.03125 95.976562 15.097656 C 96.296875 15.160156 96.609375 15.253906 96.914062 15.378906 C 97.214844 15.507812 97.503906 15.660156 97.777344 15.84375 C 98.050781 16.023438 98.304688 16.230469 98.535156 16.464844 C 98.769531 16.695312 98.976562 16.949219 99.15625 17.222656 C 99.339844 17.496094 99.492188 17.785156 99.621094 18.085938 C 99.746094 18.390625 99.839844 18.703125 99.902344 19.023438 C 99.96875 19.347656 100 19.671875 100 20 Z M 100 20 "/><path style=" stroke:none;fill-rule:nonzero;fill:#f88379;fill-opacity:1;" d="M 130 20 C 130 20.328125 129.96875 20.652344 129.902344 20.976562 C 129.839844 21.296875 129.746094 21.609375 129.621094 21.914062 C 129.492188 22.214844 129.339844 22.503906 129.15625 22.777344 C 128.976562 23.050781 128.769531 23.304688 128.535156 23.535156 C 128.304688 23.769531 128.050781 23.976562 127.777344 24.15625 C 127.503906 24.339844 127.214844 24.492188 126.914062 24.621094 C 126.609375 24.746094 126.296875 24.839844 125.976562 24.902344 C 125.652344 24.96875 125.328125 25 125 25 C 124.671875 25 124.347656 24.96875 124.023438 24.902344 C 123.703125 24.839844 123.390625 24.746094 123.085938 24.621094 C 122.785156 24.492188 122.496094 24.339844 122.222656 24.15625 C 121.949219 23.976562 121.695312 23.769531 121.464844 23.535156 C 121.230469 23.304688 121.023438 23.050781 120.84375 22.777344 C 120.660156 22.503906 120.507812 22.214844 120.378906 21.914062 C 120.253906 21.609375 120.160156 21.296875 120.097656 20.976562 C 120.03125 20.652344 120 20.328125 120 20 C 120 19.671875 120.03125 19.347656 120.097656 19.023438 C 120.160156 18.703125 120.253906 18.390625 120.378906 18.085938 C 120.507812 17.785156 120.660156 17.496094 120.84375 17.222656 C 121.023438 16.949219 121.230469 16.695312 121.464844 16.464844 C 121.695312 16.230469 121.949219 16.023438 122.222656 15.84375 C 122.496094 15.660156 122.785156 15.507812 123.085938 15.378906 C 123.390625 15.253906 123.703125 15.160156 124.023438 15.097656 C 124.347656 15.03125 124.671875 15 125 15 C 125.328125 15 125.652344 15.03125 125.976562 15.097656 C 126.296875 15.160156 126.609375 15.253906 126.914062 15.378906 C 127.214844 15.507812 127.503906 15.660156 127.777344 15.84375 C 128.050781 16.023438 128.304688 16.230469 128.535156 16.464844 C 128.769531 16.695312 128.976562 16.949219 129.15625 17.222656 C 129.339844 17.496094 129.492188 17.785156 129.621094 18.085938 C 129.746094 18.390625 129.839844 18.703125 129.902344 19.023438 C 129.96875 19.347656 130 19.671875 130 20 Z M 130 20 "/><path style=" stroke:none;fill-rule:nonzero;fill:#f88379;fill-opacity:1;" d="M 10 50 C 10 50.328125 9.96875 50.652344 9.902344 50.976562 C 9.839844 51.296875 9.746094 51.609375 9.621094 51.914062 C 9.492188 52.214844 9.339844 52.503906 9.15625 52.777344 C 8.976562 53.050781 8.769531 53.304688 8.535156 53.535156 C 8.304688 53.769531 8.050781 53.976562 7.777344 54.15625 C 7.503906 54.339844 7.214844 54.492188 6.914062 54.621094 C 6.609375 54.746094 6.296875 54.839844 5.976562 54.902344 C 5.652344 54.96875 5.328125 55 5 55 C 4.671875 55 4.347656 54.96875 4.023438 54.902344 C 3.703125 54.839844 3.390625 54.746094 3.085938 54.621094 C 2.785156 54.492188 2.496094 54.339844 2.222656 54.15625 C 1.949219 53.976562 1.695312 53.769531 1.464844 53.535156 C 1.230469 53.304688 1.023438 53.050781 0.84375 52.777344 C 0.660156 52.503906 0.507812 52.214844 0.378906 51.914062 C 0.253906 51.609375 0.160156 51.296875 0.0976562 50.976562 C 0.03125 50.652344 0 50.328125 0 50 C 0 49.671875 0.03125 49.347656 0.0976562 49.023438 C 0.160156 48.703125 0.253906 48.390625 0.378906 48.085938 C 0.507812 47.785156 0.660156 47.496094 0.84375 47.222656 C 1.023438 46.949219 1.230469 46.695312 1.464844 46.464844 C 1.695312 46.230469 1.949219 46.023438 2.222656 45.84375 C 2.496094 45.660156 2.785156 45.507812 3.085938 45.378906 C 3.390625 45.253906 3.703125 45.160156 4.023438 45.097656 C 4.347656 45.03125 4.671875 45 5 45 C 5.328125 45 5.652344 45.03125 5.976562 45.097656 C 6.296875 45.160156 6.609375 45.253906 6.914062 45.378906 C 7.214844 45.507812 7.503906 45.660156 7.777344 45.84375 C 8.050781 46.023438 8.304688 46.230469 8.535156 46.464844 C 8.769531 46.695312 8.976562 46.949219 9.15625 47.222656 C 9.339844 47.496094 9.492188 47.785156 9.621094 48.085938 C 9.746094 48.390625 9.839844 48.703125 9.902344 49.023438 C 9.96875 49.347656 10 49.671875 10 50 Z M 10 50 "/><path style=" stroke:none;fill-rule:nonzero;fill:#f88379;fill-opacity:1;" d="M 40 50 C 40 50.328125 39.96875 50.652344 39.902344 50.976562 C 39.839844 51.296875 39.746094 51.609375 39.621094 51.914062 C 39.492188 52.214844 39.339844 52.503906 39.15625 52.777344 C 38.976562 53.050781 38.769531 53.304688 38.535156 53.535156 C 38.304688 53.769531 38.050781 53.976562 37.777344 54.15625 C 37.503906 54.339844 37.214844 54.492188 36.914062 54.621094 C 36.609375 54.746094 36.296875 54.839844 35.976562 54.902344 C 35.652344 54.96875 35.328125 55 35 55 C 34.671875 55 34.347656 54.96875 34.023438 54.902344 C 33.703125 54.839844 33.390625 54.746094 33.085938 54.621094 C 32.785156 54.492188 32.496094 54.339844 32.222656 54.15625 C 31.949219 53.976562 31.695312 53.769531 31.464844 53.535156 C 31.230469 53.304688 31.023438 53.050781 30.84375 52.777344 C 30.660156 52.503906 30.507812 52.214844 30.378906 51.914062 C 30.253906 51.609375 30.160156 51.296875 30.097656 50.976562 C 30.03125 50.652344 30 50.328125 30 50 C 30 49.671875 30.03125 49.347656 30.097656 49.023438 C 30.160156 48.703125 30.253906 48.390625 30.378906 48.085938 C 30.507812 47.785156 30.660156 47.496094 30.84375 47.222656 C 31.023438 46.949219 31.230469 46.695312 31.464844 46.464844 C 31.695312 46.230469 31.949219 46.023438 32.222656 45.84375 C 32.496094 45.660156 32.785156 45.507812 33.085938 45.378906 C 33.390625 45.253906 33.703125 45.160156 34.023438 45.097656 C 34.347656 45.03125 34.671875 45 35 45 C 35.328125 45 35.652344 45.03125 35.976562 45.097656 C 36.296875 45.160156 36.609375 45.253906 36.914062 45.378906 C 37.214844 45.507812 37.503906 45.660156 37.777344 45.84375 C 38.050781 46.023438 38.304688 46.230469 38.535156 46.464844 C 38.769531 46.695312 38.976562 46.949219 39.15625 47.222656 C 39.339844 47.496094 39.492188 47.785156 39.621094 48.085938 C 39.746094 48.390625 39.839844 48.703125 39.902344 49.023438 C 39.96875 49.347656 40 49.671875 40 50 Z M 40 50 "/><path style=" stroke:none;fill-rule:nonzero;fill:#f88379;fill-opacity:1;" d="M 70 50 C 70 50.328125 69.96875 50.652344 69.902344 50.976562 C 69.839844 51.296875 69.746094 51.609375 69.621094 51.914062 C 69.492188 52.214844 69.339844 52.503906 69.15625 52.777344 C 68.976562 53.050781 68.769531 53.304688 68.535156 53.535156 C 68.304688 53.769531 68.050781 53.976562 67.777344 54.15625 C 67.503906 54.339844 67.214844 54.492188 66.914062 54.621094 C 66.609375 54.746094 66.296875 54.839844 65.976562 54.902344 C 65.652344 54.96875 65.328125 55 65 55 C 64.671875 55 64.347656 54.96875 64.023438 54.902344 C 63.703125 54.839844 63.390625 54.746094 63.085938 54.621094 C 62.785156 54.492188 62.496094 54.339844 62.222656 54.15625 C 61.949219 53.976562 61.695312 53.769531 61.464844 53.535156 C 61.230469 53.304688 61.023438 53.050781 60.84375 52.777344 C 60.660156 52.503906 60.507812 52.214844 60.378906 51.914062 C 60.253906 51.609375 60.160156 51.296875 60.097656 50.976562 C 60.03125 50.652344 60 50.328125 60 50 C 60 49.671875 60.03125 49.347656 60.097656 49.023438 C 60.160156 48.703125 60.253906 48.390625 60.378906 48.085938 C 60.507812 47.785156 60.660156 47.496094 60.84375 47.222656 C 61.023438 46.949219 61.230469 46.695312 61.464844 46.464844 C 61.695312 46.230469 61.949219 46.023438 62.222656 45.84375 C 62.496094 45.660156 62.785156 45.507812 63.085938 45.378906 C 63.390625 45.253906 63.703125 45.160156 64.023438 45.097656 C 64.347656 45.03125 64.671875 45 65 45 C 65.328125 45 65.652344 45.03125 65.976562 45.097656 C 66.296875 45.160156 66.609375 45.253906 66.914062 45.378906 C 67.214844 45.507812 67.503906 45.660156 67.777344 45.84375 C 68.050781 46.023438 68.304688 46.230469 68.535156 46.464844 C 68.769531 46.695312 68.976562 46.949219 69.15625 47.222656 C 69.339844 47.496094 69.492188 47.785156 69.621094 48.085938 C 69.746094 48.390625 69.839844 48.703125 69.902344 49.023438 C 69.96875 49.347656 70 49.671875 70 50 Z M 70 50 "/><path style=" stroke:none;fill-rule:nonzero;fill:#f88379;fill-opacity:1;" d="M 100 50 C 100 50.328125 99.96875 50.652344 99.902344 50.976562 C 99.839844 51.296875 99.746094 51.609375 99.621094 51.914062 C 99.492188 52.214844 99.339844 52.503906 99.15625 52.777344 C 98.976562 53.050781 98.769531 53.304688 98.535156 53.535156 C 98.304688 53.769531 98.050781 53.976562 97.777344 54.15625 C 97.503906 54.339844 97.214844 54.492188 96.914062 54.621094 C 96.609375 54.746094 96.296875 54.839844 95.976562 54.902344 C 95.652344 54.96875 95.328125 55 95 55 C 94.671875 55 94.347656 54.96875 94.023438 54.902344 C 93.703125 54.839844 93.390625 54.746094 93.085938 54.621094 C 92.785156 54.492188 92.496094 54.339844 92.222656 54.15625 C 91.949219 53.976562 91.695312 53.769531 91.464844 53.535156 C 91.230469 53.304688 91.023438 53.050781 90.84375 52.777344 C 90.660156 52.503906 90.507812 52.214844 90.378906 51.914062 C 90.253906 51.609375 90.160156 51.296875 90.097656 50.976562 C 90.03125 50.652344 90 50.328125 90 50 C 90 49.671875 90.03125 49.347656 90.097656 49.023438 C 90.160156 48.703125 90.253906 48.390625 90.378906 48.085938 C 90.507812 47.785156 90.660156 47.496094 90.84375 47.222656 C 91.023438 46.949219 91.230469 46.695312 91.464844 46.464844 C 91.695312 46.230469 91.949219 46.023438 92.222656 45.84375 C 92.496094 45.660156 92.785156 45.507812 93.085938 45.378906 C 93.390625 45.253906 93.703125 45.160156 94.023438 45.097656 C 94.347656 45.03125 94.671875 45 95 45 C 95.328125 45 95.652344 45.03125 95.976562 45.097656 C 96.296875 45.160156 96.609375 45.253906 96.914062 45.378906 C 97.214844 45.507812 97.503906 45.660156 97.777344 45.84375 C 98.050781 46.023438 98.304688 46.230469 98.535156 46.464844 C 98.769531 46.695312 98.976562 46.949219 99.15625 47.222656 C 99.339844 47.496094 99.492188 47.785156 99.621094 48.085938 C 99.746094 48.390625 99.839844 48.703125 99.902344 49.023438 C 99.96875 49.347656 100 49.671875 100 50 Z M 100 50 "/><path style=" stroke:none;fill-rule:nonzero;fill:#f88379;fill-opacity:1;" d="M 130 50 C 130 50.328125 129.96875 50.652344 129.902344 50.976562 C 129.839844 51.296875 129.746094 51.609375 129.621094 51.914062 C 129.492188 52.214844 129.339844 52.503906 129.15625 52.777344 C 128.976562 53.050781 128.769531 53.304688 128.535156 53.535156 C 128.304688 53.769531 128.050781 53.976562 127.777344 54.15625 C 127.503906 54.339844 127.214844 54.492188 126.914062 54.621094 C 126.609375 54.746094 126.296875 54.839844 125.976562 54.902344 C 125.652344 54.96875 125.328125 55 125 55 C 124.671875 55 124.347656 54.96875 124.023438 54.902344 C 123.703125 54.839844 123.390625 54.746094 123.085938 54.621094 C 122.785156 54.492188 122.496094 54.339844 122.222656 54.15625 C 121.949219 53.976562 121.695312 53.769531 121.464844 53.535156 C 121.230469 53.304688 121.023438 53.050781 120.84375 52.777344 C 120.660156 52.503906 120.507812 52.214844 120.378906 51.914062 C 120.253906 51.609375 120.160156 51.296875 120.097656 50.976562 C 120.03125 50.652344 120 50.328125 120 50 C 120 49.671875 120.03125 49.347656 120.097656 49.023438 C 120.160156 48.703125 120.253906 48.390625 120.378906 48.085938 C 120.507812 47.785156 120.660156 47.496094 120.84375 47.222656 C 121.023438 46.949219 121.230469 46.695312 121.464844 46.464844 C 121.695312 46.230469 121.949219 46.023438 122.222656 45.84375 C 122.496094 45.660156 122.785156 45.507812 123.085938 45.378906 C 123.390625 45.253906 123.703125 45.160156 124.023438 45.097656 C 124.347656 45.03125 124.671875 45 125 45 C 125.328125 45 125.652344 45.03125 125.976562 45.097656 C 126.296875 45.160156 126.609375 45.253906 126.914062 45.378906 C 127.214844 45.507812 127.503906 45.660156 127.777344 45.84375 C 128.050781 46.023438 128.304688 46.230469 128.535156 46.464844 C 128.769531 46.695312 128.976562 46.949219 129.15625 47.222656 C 129.339844 47.496094 129.492188 47.785156 129.621094 48.085938 C 129.746094 48.390625 129.839844 48.703125 129.902344 49.023438 C 129.96875 49.347656 130 49.671875 130 50 Z M 130 50 "/><path style=" stroke:none;fill-rule:nonzero;fill:#f88379;fill-opacity:1;" d="M 10 80 C 10 80.328125 9.96875 80.652344 9.902344 80.976562 C 9.839844 81.296875 9.746094 81.609375 9.621094 81.914062 C 9.492188 82.214844 9.339844 82.503906 9.15625 82.777344 C 8.976562 83.050781 8.769531 83.304688 8.535156 83.535156 C 8.304688 83.769531 8.050781 83.976562 7.777344 84.15625 C 7.503906 84.339844 7.214844 84.492188 6.914062 84.621094 C 6.609375 84.746094 6.296875 84.839844 5.976562 84.902344 C 5.652344 84.96875 5.328125 85 5 85 C 4.671875 85 4.347656 84.96875 4.023438 84.902344 C 3.703125 84.839844 3.390625 84.746094 3.085938 84.621094 C 2.785156 84.492188 2.496094 84.339844 2.222656 84.15625 C 1.949219 83.976562 1.695312 83.769531 1.464844 83.535156 C 1.230469 83.304688 1.023438 83.050781 0.84375 82.777344 C 0.660156 82.503906 0.507812 82.214844 0.378906 81.914062 C 0.253906 81.609375 0.160156 81.296875 0.0976562 80.976562 C 0.03125 80.652344 0 80.328125 0 80 C 0 79.671875 0.03125 79.347656 0.0976562 79.023438 C 0.160156 78.703125 0.253906 78.390625 0.378906 78.085938 C 0.507812 77.785156 0.660156 77.496094 0.84375 77.222656 C 1.023438 76.949219 1.230469 76.695312 1.464844 76.464844 C 1.695312 76.230469 1.949219 76.023438 2.222656 75.84375 C 2.496094 75.660156 2.785156 75.507812 3.085938 75.378906 C 3.390625 75.253906 3.703125 75.160156 4.023438 75.097656 C 4.347656 75.03125 4.671875 75 5 75 C 5.328125 75 5.652344 75.03125 5.976562 75.097656 C 6.296875 75.160156 6.609375 75.253906 6.914062 75.378906 C 7.214844 75.507812 7.503906 75.660156 7.777344 75.84375 C 8.050781 76.023438 8.304688 76.230469 8.535156 76.464844 C 8.769531 76.695312 8.976562 76.949219 9.15625 77.222656 C 9.339844 77.496094 9.492188 77.785156 9.621094 78.085938 C 9.746094 78.390625 9.839844 78.703125 9.902344 79.023438 C 9.96875 79.347656 10 79.671875 10 80 Z M 10 80 "/><path style=" stroke:none;fill-rule:nonzero;fill:#f88379;fill-opacity:1;" d="M 40 80 C 40 80.328125 39.96875 80.652344 39.902344 80.976562 C 39.839844 81.296875 39.746094 81.609375 39.621094 81.914062 C 39.492188 82.214844 39.339844 82.503906 39.15625 82.777344 C 38.976562 83.050781 38.769531 83.304688 38.535156 83.535156 C 38.304688 83.769531 38.050781 83.976562 37.777344 84.15625 C 37.503906 84.339844 37.214844 84.492188 36.914062 84.621094 C 36.609375 84.746094 36.296875 84.839844 35.976562 84.902344 C 35.652344 84.96875 35.328125 85 35 85 C 34.671875 85 34.347656 84.96875 34.023438 84.902344 C 33.703125 84.839844 33.390625 84.746094 33.085938 84.621094 C 32.785156 84.492188 32.496094 84.339844 32.222656 84.15625 C 31.949219 83.976562 31.695312 83.769531 31.464844 83.535156 C 31.230469 83.304688 31.023438 83.050781 30.84375 82.777344 C 30.660156 82.503906 30.507812 82.214844 30.378906 81.914062 C 30.253906 81.609375 30.160156 81.296875 30.097656 80.976562 C 30.03125 80.652344 30 80.328125 30 80 C 30 79.671875 30.03125 79.347656 30.097656 79.023438 C 30.160156 78.703125 30.253906 78.390625 30.378906 78.085938 C 30.507812 77.785156 30.660156 77.496094 30.84375 77.222656 C 31.023438 76.949219 31.230469 76.695312 31.464844 76.464844 C 31.695312 76.230469 31.949219 76.023438 32.222656 75.84375 C 32.496094 75.660156 32.785156 75.507812 33.085938 75.378906 C 33.390625 75.253906 33.703125 75.160156 34.023438 75.097656 C 34.347656 75.03125 34.671875 75 35 75 C 35.328125 75 35.652344 75.03125 35.976562 75.097656 C 36.296875 75.160156 36.609375 75.253906 36.914062 75.378906 C 37.214844 75.507812 37.503906 75.660156 37.777344 75.84375 C 38.050781 76.023438 38.304688 76.230469 38.535156 76.464844 C 38.769531 76.695312 38.976562 76.949219 39.15625 77.222656 C 39.339844 77.496094 39.492188 77.785156 39.621094 78.085938 C 39.746094 78.390625 39.839844 78.703125 39.902344 79.023438 C 39.96875 79.347656 40 79.671875 40 80 Z M 40 80 "/><path style=" stroke:none;fill-rule:nonzero;fill:#f88379;fill-opacity:1;" d="M 70 80 C 70 80.328125 69.96875 80.652344 69.902344 80.976562 C 69.839844 81.296875 69.746094 81.609375 69.621094 81.914062 C 69.492188 82.214844 69.339844 82.503906 69.15625 82.777344 C 68.976562 83.050781 68.769531 83.304688 68.535156 83.535156 C 68.304688 83.769531 68.050781 83.976562 67.777344 84.15625 C 67.503906 84.339844 67.214844 84.492188 66.914062 84.621094 C 66.609375 84.746094 66.296875 84.839844 65.976562 84.902344 C 65.652344 84.96875 65.328125 85 65 85 C 64.671875 85 64.347656 84.96875 64.023438 84.902344 C 63.703125 84.839844 63.390625 84.746094 63.085938 84.621094 C 62.785156 84.492188 62.496094 84.339844 62.222656 84.15625 C 61.949219 83.976562 61.695312 83.769531 61.464844 83.535156 C 61.230469 83.304688 61.023438 83.050781 60.84375 82.777344 C 60.660156 82.503906 60.507812 82.214844 60.378906 81.914062 C 60.253906 81.609375 60.160156 81.296875 60.097656 80.976562 C 60.03125 80.652344 60 80.328125 60 80 C 60 79.671875 60.03125 79.347656 60.097656 79.023438 C 60.160156 78.703125 60.253906 78.390625 60.378906 78.085938 C 60.507812 77.785156 60.660156 77.496094 60.84375 77.222656 C 61.023438 76.949219 61.230469 76.695312 61.464844 76.464844 C 61.695312 76.230469 61.949219 76.023438 62.222656 75.84375 C 62.496094 75.660156 62.785156 75.507812 63.085938 75.378906 C 63.390625 75.253906 63.703125 75.160156 64.023438 75.097656 C 64.347656 75.03125 64.671875 75 65 75 C 65.328125 75 65.652344 75.03125 65.976562 75.097656 C 66.296875 75.160156 66.609375 75.253906 66.914062 75.378906 C 67.214844 75.507812 67.503906 75.660156 67.777344 75.84375 C 68.050781 76.023438 68.304688 76.230469 68.535156 76.464844 C 68.769531 76.695312 68.976562 76.949219 69.15625 77.222656 C 69.339844 77.496094 69.492188 77.785156 69.621094 78.085938 C 69.746094 78.390625 69.839844 78.703125 69.902344 79.023438 C 69.96875 79.347656 70 79.671875 70 80 Z M 70 80 "/><path style=" stroke:none;fill-rule:nonzero;fill:#f88379;fill-opacity:1;" d="M 100 80 C 100 80.328125 99.96875 80.652344 99.902344 80.976562 C 99.839844 81.296875 99.746094 81.609375 99.621094 81.914062 C 99.492188 82.214844 99.339844 82.503906 99.15625 82.777344 C 98.976562 83.050781 98.769531 83.304688 98.535156 83.535156 C 98.304688 83.769531 98.050781 83.976562 97.777344 84.15625 C 97.503906 84.339844 97.214844 84.492188 96.914062 84.621094 C 96.609375 84.746094 96.296875 84.839844 95.976562 84.902344 C 95.652344 84.96875 95.328125 85 95 85 C 94.671875 85 94.347656 84.96875 94.023438 84.902344 C 93.703125 84.839844 93.390625 84.746094 93.085938 84.621094 C 92.785156 84.492188 92.496094 84.339844 92.222656 84.15625 C 91.949219 83.976562 91.695312 83.769531 91.464844 83.535156 C 91.230469 83.304688 91.023438 83.050781 90.84375 82.777344 C 90.660156 82.503906 90.507812 82.214844 90.378906 81.914062 C 90.253906 81.609375 90.160156 81.296875 90.097656 80.976562 C 90.03125 80.652344 90 80.328125 90 80 C 90 79.671875 90.03125 79.347656 90.097656 79.023438 C 90.160156 78.703125 90.253906 78.390625 90.378906 78.085938 C 90.507812 77.785156 90.660156 77.496094 90.84375 77.222656 C 91.023438 76.949219 91.230469 76.695312 91.464844 76.464844 C 91.695312 76.230469 91.949219 76.023438 92.222656 75.84375 C 92.496094 75.660156 92.785156 75.507812 93.085938 75.378906 C 93.390625 75.253906 93.703125 75.160156 94.023438 75.097656 C 94.347656 75.03125 94.671875 75 95 75 C 95.328125 75 95.652344 75.03125 95.976562 75.097656 C 96.296875 75.160156 96.609375 75.253906 96.914062 75.378906 C 97.214844 75.507812 97.503906 75.660156 97.777344 75.84375 C 98.050781 76.023438 98.304688 76.230469 98.535156 76.464844 C 98.769531 76.695312 98.976562 76.949219 99.15625 77.222656 C 99.339844 77.496094 99.492188 77.785156 99.621094 78.085938 C 99.746094 78.390625 99.839844 78.703125 99.902344 79.023438 C 99.96875 79.347656 100 79.671875 100 80 Z M 100 80 "/><path style=" stroke:none;fill-rule:nonzero;fill:#f88379;fill-opacity:1;" d="M 130 80 C 130 80.328125 129.96875 80.652344 129.902344 80.976562 C 129.839844 81.296875 129.746094 81.609375 129.621094 81.914062 C 129.492188 82.214844 129.339844 82.503906 129.15625 82.777344 C 128.976562 83.050781 128.769531 83.304688 128.535156 83.535156 C 128.304688 83.769531 128.050781 83.976562 127.777344 84.15625 C 127.503906 84.339844 127.214844 84.492188 126.914062 84.621094 C 126.609375 84.746094 126.296875 84.839844 125.976562 84.902344 C 125.652344 84.96875 125.328125 85 125 85 C 124.671875 85 124.347656 84.96875 124.023438 84.902344 C 123.703125 84.839844 123.390625 84.746094 123.085938 84.621094 C 122.785156 84.492188 122.496094 84.339844 122.222656 84.15625 C 121.949219 83.976562 121.695312 83.769531 121.464844 83.535156 C 121.230469 83.304688 121.023438 83.050781 120.84375 82.777344 C 120.660156 82.503906 120.507812 82.214844 120.378906 81.914062 C 120.253906 81.609375 120.160156 81.296875 120.097656 80.976562 C 120.03125 80.652344 120 80.328125 120 80 C 120 79.671875 120.03125 79.347656 120.097656 79.023438 C 120.160156 78.703125 120.253906 78.390625 120.378906 78.085938 C 120.507812 77.785156 120.660156 77.496094 120.84375 77.222656 C 121.023438 76.949219 121.230469 76.695312 121.464844 76.464844 C 121.695312 76.230469 121.949219 76.023438 122.222656 75.84375 C 122.496094 75.660156 122.785156 75.507812 123.085938 75.378906 C 123.390625 75.253906 123.703125 75.160156 124.023438 75.097656 C 124.347656 75.03125 124.671875 75 125 75 C 125.328125 75 125.652344 75.03125 125.976562 75.097656 C 126.296875 75.160156 126.609375 75.253906 126.914062 75.378906 C 127.214844 75.507812 127.503906 75.660156 127.777344 75.84375 C 128.050781 76.023438 128.304688 76.230469 128.535156 76.464844 C 128.769531 76.695312 128.976562 76.949219 129.15625 77.222656 C 129.339844 77.496094 129.492188 77.785156 129.621094 78.085938 C 129.746094 78.390625 129.839844 78.703125 129.902344 79.023438 C 129.96875 79.347656 130 79.671875 130 80 Z M 130 80 "/><path style=" stroke:none;fill-rule:nonzero;fill:#f88379;fill-opacity:1;" d="M 10 110 C 10 110.328125 9.96875 110.652344 9.902344 110.976562 C 9.839844 111.296875 9.746094 111.609375 9.621094 111.914062 C 9.492188 112.214844 9.339844 112.503906 9.15625 112.777344 C 8.976562 113.050781 8.769531 113.304688 8.535156 113.535156 C 8.304688 113.769531 8.050781 113.976562 7.777344 114.15625 C 7.503906 114.339844 7.214844 114.492188 6.914062 114.621094 C 6.609375 114.746094 6.296875 114.839844 5.976562 114.902344 C 5.652344 114.96875 5.328125 115 5 115 C 4.671875 115 4.347656 114.96875 4.023438 114.902344 C 3.703125 114.839844 3.390625 114.746094 3.085938 114.621094 C 2.785156 114.492188 2.496094 114.339844 2.222656 114.15625 C 1.949219 113.976562 1.695312 113.769531 1.464844 113.535156 C 1.230469 113.304688 1.023438 113.050781 0.84375 112.777344 C 0.660156 112.503906 0.507812 112.214844 0.378906 111.914062 C 0.253906 111.609375 0.160156 111.296875 0.0976562 110.976562 C 0.03125 110.652344 0 110.328125 0 110 C 0 109.671875 0.03125 109.347656 0.0976562 109.023438 C 0.160156 108.703125 0.253906 108.390625 0.378906 108.085938 C 0.507812 107.785156 0.660156 107.496094 0.84375 107.222656 C 1.023438 106.949219 1.230469 106.695312 1.464844 106.464844 C 1.695312 106.230469 1.949219 106.023438 2.222656 105.84375 C 2.496094 105.660156 2.785156 105.507812 3.085938 105.378906 C 3.390625 105.253906 3.703125 105.160156 4.023438 105.097656 C 4.347656 105.03125 4.671875 105 5 105 C 5.328125 105 5.652344 105.03125 5.976562 105.097656 C 6.296875 105.160156 6.609375 105.253906 6.914062 105.378906 C 7.214844 105.507812 7.503906 105.660156 7.777344 105.84375 C 8.050781 106.023438 8.304688 106.230469 8.535156 106.464844 C 8.769531 106.695312 8.976562 106.949219 9.15625 107.222656 C 9.339844 107.496094 9.492188 107.785156 9.621094 108.085938 C 9.746094 108.390625 9.839844 108.703125 9.902344 109.023438 C 9.96875 109.347656 10 109.671875 10 110 Z M 10 110 "/><path style=" stroke:none;fill-rule:nonzero;fill:#f88379;fill-opacity:1;" d="M 40 110 C 40 110.328125 39.96875 110.652344 39.902344 110.976562 C 39.839844 111.296875 39.746094 111.609375 39.621094 111.914062 C 39.492188 112.214844 39.339844 112.503906 39.15625 112.777344 C 38.976562 113.050781 38.769531 113.304688 38.535156 113.535156 C 38.304688 113.769531 38.050781 113.976562 37.777344 114.15625 C 37.503906 114.339844 37.214844 114.492188 36.914062 114.621094 C 36.609375 114.746094 36.296875 114.839844 35.976562 114.902344 C 35.652344 114.96875 35.328125 115 35 115 C 34.671875 115 34.347656 114.96875 34.023438 114.902344 C 33.703125 114.839844 33.390625 114.746094 33.085938 114.621094 C 32.785156 114.492188 32.496094 114.339844 32.222656 114.15625 C 31.949219 113.976562 31.695312 113.769531 31.464844 113.535156 C 31.230469 113.304688 31.023438 113.050781 30.84375 112.777344 C 30.660156 112.503906 30.507812 112.214844 30.378906 111.914062 C 30.253906 111.609375 30.160156 111.296875 30.097656 110.976562 C 30.03125 110.652344 30 110.328125 30 110 C 30 109.671875 30.03125 109.347656 30.097656 109.023438 C 30.160156 108.703125 30.253906 108.390625 30.378906 108.085938 C 30.507812 107.785156 30.660156 107.496094 30.84375 107.222656 C 31.023438 106.949219 31.230469 106.695312 31.464844 106.464844 C 31.695312 106.230469 31.949219 106.023438 32.222656 105.84375 C 32.496094 105.660156 32.785156 105.507812 33.085938 105.378906 C 33.390625 105.253906 33.703125 105.160156 34.023438 105.097656 C 34.347656 105.03125 34.671875 105 35 105 C 35.328125 105 35.652344 105.03125 35.976562 105.097656 C 36.296875 105.160156 36.609375 105.253906 36.914062 105.378906 C 37.214844 105.507812 37.503906 105.660156 37.777344 105.84375 C 38.050781 106.023438 38.304688 106.230469 38.535156 106.464844 C 38.769531 106.695312 38.976562 106.949219 39.15625 107.222656 C 39.339844 107.496094 39.492188 107.785156 39.621094 108.085938 C 39.746094 108.390625 39.839844 108.703125 39.902344 109.023438 C 39.96875 109.347656 40 109.671875 40 110 Z M 40 110 "/><path style=" stroke:none;fill-rule:nonzero;fill:#f88379;fill-opacity:1;" d="M 70 110 C 70 110.328125 69.96875 110.652344 69.902344 110.976562 C 69.839844 111.296875 69.746094 111.609375 69.621094 111.914062 C 69.492188 112.214844 69.339844 112.503906 69.15625 112.777344 C 68.976562 113.050781 68.769531 113.304688 68.535156 113.535156 C 68.304688 113.769531 68.050781 113.976562 67.777344 114.15625 C 67.503906 114.339844 67.214844 114.492188 66.914062 114.621094 C 66.609375 114.746094 66.296875 114.839844 65.976562 114.902344 C 65.652344 114.96875 65.328125 115 65 115 C 64.671875 115 64.347656 114.96875 64.023438 114.902344 C 63.703125 114.839844 63.390625 114.746094 63.085938 114.621094 C 62.785156 114.492188 62.496094 114.339844 62.222656 114.15625 C 61.949219 113.976562 61.695312 113.769531 61.464844 113.535156 C 61.230469 113.304688 61.023438 113.050781 60.84375 112.777344 C 60.660156 112.503906 60.507812 112.214844 60.378906 111.914062 C 60.253906 111.609375 60.160156 111.296875 60.097656 110.976562 C 60.03125 110.652344 60 110.328125 60 110 C 60 109.671875 60.03125 109.347656 60.097656 109.023438 C 60.160156 108.703125 60.253906 108.390625 60.378906 108.085938 C 60.507812 107.785156 60.660156 107.496094 60.84375 107.222656 C 61.023438 106.949219 61.230469 106.695312 61.464844 106.464844 C 61.695312 106.230469 61.949219 106.023438 62.222656 105.84375 C 62.496094 105.660156 62.785156 105.507812 63.085938 105.378906 C 63.390625 105.253906 63.703125 105.160156 64.023438 105.097656 C 64.347656 105.03125 64.671875 105 65 105 C 65.328125 105 65.652344 105.03125 65.976562 105.097656 C 66.296875 105.160156 66.609375 105.253906 66.914062 105.378906 C 67.214844 105.507812 67.503906 105.660156 67.777344 105.84375 C 68.050781 106.023438 68.304688 106.230469 68.535156 106.464844 C 68.769531 106.695312 68.976562 106.949219 69.15625 107.222656 C 69.339844 107.496094 69.492188 107.785156 69.621094 108.085938 C 69.746094 108.390625 69.839844 108.703125 69.902344 109.023438 C 69.96875 109.347656 70 109.671875 70 110 Z M 70 110 "/><path style=" stroke:none;fill-rule:nonzero;fill:#f88379;fill-opacity:1;" d="M 100 110 C 100 110.328125 99.96875 110.652344 99.902344 110.976562 C 99.839844 111.296875 99.746094 111.609375 99.621094 111.914062 C 99.492188 112.214844 99.339844 112.503906 99.15625 112.777344 C 98.976562 113.050781 98.769531 113.304688 98.535156 113.535156 C 98.304688 113.769531 98.050781 113.976562 97.777344 114.15625 C 97.503906 114.339844 97.214844 114.492188 96.914062 114.621094 C 96.609375 114.746094 96.296875 114.839844 95.976562 114.902344 C 95.652344 114.96875 95.328125 115 95 115 C 94.671875 115 94.347656 114.96875 94.023438 114.902344 C 93.703125 114.839844 93.390625 114.746094 93.085938 114.621094 C 92.785156 114.492188 92.496094 114.339844 92.222656 114.15625 C 91.949219 113.976562 91.695312 113.769531 91.464844 113.535156 C 91.230469 113.304688 91.023438 113.050781 90.84375 112.777344 C 90.660156 112.503906 90.507812 112.214844 90.378906 111.914062 C 90.253906 111.609375 90.160156 111.296875 90.097656 110.976562 C 90.03125 110.652344 90 110.328125 90 110 C 90 109.671875 90.03125 109.347656 90.097656 109.023438 C 90.160156 108.703125 90.253906 108.390625 90.378906 108.085938 C 90.507812 107.785156 90.660156 107.496094 90.84375 107.222656 C 91.023438 106.949219 91.230469 106.695312 91.464844 106.464844 C 91.695312 106.230469 91.949219 106.023438 92.222656 105.84375 C 92.496094 105.660156 92.785156 105.507812 93.085938 105.378906 C 93.390625 105.253906 93.703125 105.160156 94.023438 105.097656 C 94.347656 105.03125 94.671875 105 95 105 C 95.328125 105 95.652344 105.03125 95.976562 105.097656 C 96.296875 105.160156 96.609375 105.253906 96.914062 105.378906 C 97.214844 105.507812 97.503906 105.660156 97.777344 105.84375 C 98.050781 106.023438 98.304688 106.230469 98.535156 106.464844 C 98.769531 106.695312 98.976562 106.949219 99.15625 107.222656 C 99.339844 107.496094 99.492188 107.785156 99.621094 108.085938 C 99.746094 108.390625 99.839844 108.703125 99.902344 109.023438 C 99.96875 109.347656 100 109.671875 100 110 Z M 100 110 "/><path style=" stroke:none;fill-rule:nonzero;fill:#f88379;fill-opacity:1;" d="M 130 110 C 130 110.328125 129.96875 110.652344 129.902344 110.976562 C 129.839844 111.296875 129.746094 111.609375 129.621094 111.914062 C 129.492188 112.214844 129.339844 112.503906 129.15625 112.777344 C 128.976562 113.050781 128.769531 113.304688 128.535156 113.535156 C 128.304688 113.769531 128.050781 113.976562 127.777344 114.15625 C 127.503906 114.339844 127.214844 114.492188 126.914062 114.621094 C 126.609375 114.746094 126.296875 114.839844 125.976562 114.902344 C 125.652344 114.96875 125.328125 115 125 115 C 124.671875 115 124.347656 114.96875 124.023438 114.902344 C 123.703125 114.839844 123.390625 114.746094 123.085938 114.621094 C 122.785156 114.492188 122.496094 114.339844 122.222656 114.15625 C 121.949219 113.976562 121.695312 113.769531 121.464844 113.535156 C 121.230469 113.304688 121.023438 113.050781 120.84375 112.777344 C 120.660156 112.503906 120.507812 112.214844 120.378906 111.914062 C 120.253906 111.609375 120.160156 111.296875 120.097656 110.976562 C 120.03125 110.652344 120 110.328125 120 110 C 120 109.671875 120.03125 109.347656 120.097656 109.023438 C 120.160156 108.703125 120.253906 108.390625 120.378906 108.085938 C 120.507812 107.785156 120.660156 107.496094 120.84375 107.222656 C 121.023438 106.949219 121.230469 106.695312 121.464844 106.464844 C 121.695312 106.230469 121.949219 106.023438 122.222656 105.84375 C 122.496094 105.660156 122.785156 105.507812 123.085938 105.378906 C 123.390625 105.253906 123.703125 105.160156 124.023438 105.097656 C 124.347656 105.03125 124.671875 105 125 105 C 125.328125 105 125.652344 105.03125 125.976562 105.097656 C 126.296875 105.160156 126.609375 105.253906 126.914062 105.378906 C 127.214844 105.507812 127.503906 105.660156 127.777344 105.84375 C 128.050781 106.023438 128.304688 106.230469 128.535156 106.464844 C 128.769531 106.695312 128.976562 106.949219 129.15625 107.222656 C 129.339844 107.496094 129.492188 107.785156 129.621094 108.085938 C 129.746094 108.390625 129.839844 108.703125 129.902344 109.023438 C 129.96875 109.347656 130 109.671875 130 110 Z M 130 110 "/></g></svg>