<svg xmlns="http://www.w3.org/2000/svg" xmlns:xlink="http://www.w3.org/1999/xlink" width="205" zoomAndPan="magnify" viewBox="0 0 153.75 45.749998" height="61" preserveAspectRatio="xMidYMid meet" version="1.2"><defs><clipPath id="a7837a1d49"><path d="M 1.136719 0.839844 L 14.9375 0.839844 L 14.9375 12.625 L 1.136719 12.625 Z M 1.136719 0.839844 "/></clipPath><clipPath id="815e73c79f"><path d="M 14.917969 7.503906 L 13.449219 0.972656 L 1.265625 0.972656 L 4.492188 12.550781 C 7.589844 12.207031 10.789062 11.332031 13.242188 9.210938 Z M 14.917969 7.503906 "/></clipPath><clipPath id="5cbce4052f"><path d="M 25.710938 0.839844 L 42.546875 0.839844 L 42.546875 22.390625 L 25.710938 22.390625 Z M 25.710938 0.839844 "/></clipPath><clipPath id="e1f0356575"><path d="M 30.238281 0.972656 L 26.679688 16.789062 L 25.96875 19.945312 L 25.820312 20.597656 L 26.65625 22.308594 L 26.839844 22.378906 L 27.230469 22.179688 C 30.085938 19.324219 33.824219 17.6875 37.835938 17.515625 L 38.578125 14.84375 L 39.378906 11.933594 L 42.417969 0.972656 Z M 30.238281 0.972656 "/></clipPath><clipPath id="67cc9cedd9"><path d="M 5.175781 10.773438 L 37.160156 10.773438 L 37.160156 44.609375 L 5.175781 44.609375 Z M 5.175781 10.773438 "/></clipPath><clipPath id="98c67f6418"><path d="M 28.707031 24.820312 C 28.1875 25.34375 27.492188 25.632812 26.765625 25.632812 C 26.648438 25.632812 26.53125 25.621094 26.414062 25.609375 C 25.820312 25.535156 25.28125 25.277344 24.859375 24.875 L 23.546875 30.699219 C 23.378906 31.496094 23.210938 32.320312 23.039062 33.160156 C 22.875 34.003906 22.726562 34.824219 22.597656 35.621094 L 21.085938 35.621094 C 20.960938 34.824219 20.808594 34.003906 20.644531 33.160156 C 20.476562 32.320312 20.308594 31.496094 20.140625 30.699219 L 16.699219 15.410156 L 15.9375 12.03125 L 15.679688 10.882812 L 15.277344 11.289062 C 15.25 11.316406 15.226562 11.339844 15.195312 11.367188 C 15.148438 11.40625 15.101562 11.445312 15.054688 11.484375 C 12.195312 13.921875 8.675781 14.960938 5.277344 15.386719 L 5.980469 17.910156 L 6.765625 20.726562 L 12.5 41.300781 C 12.710938 42.269531 13.183594 43.050781 13.921875 43.636719 C 14.65625 44.226562 15.550781 44.519531 16.601562 44.519531 L 27.144531 44.519531 C 28.152344 44.519531 29.023438 44.230469 29.761719 43.636719 C 30.496094 43.050781 30.992188 42.269531 31.246094 41.300781 L 37.007812 20.496094 C 34.09375 20.828125 31.394531 22.132812 29.292969 24.234375 Z M 28.707031 24.820312 "/></clipPath><clipPath id="44b77da2ae"><path d="M 5.175781 7.742188 L 38.675781 7.742188 L 38.675781 22.894531 L 5.175781 22.894531 Z M 5.175781 7.742188 "/></clipPath><clipPath id="7b9afe6896"><path d="M 38.628906 14.652344 L 37.796875 17.65625 C 35.003906 18.046875 32.425781 19.324219 30.394531 21.355469 L 29.8125 21.9375 C 29.292969 22.460938 28.597656 22.746094 27.871094 22.746094 C 27.753906 22.746094 27.636719 22.738281 27.523438 22.722656 C 26.738281 22.628906 26.050781 22.207031 25.601562 21.566406 C 25.566406 21.515625 25.527344 21.457031 25.492188 21.402344 C 25.472656 21.367188 25.453125 21.328125 25.429688 21.292969 L 20.410156 10.992188 C 20.296875 10.867188 20.136719 10.75 19.9375 10.734375 C 19.71875 10.722656 19.472656 10.832031 19.25 11.050781 L 16.382812 13.972656 C 16.378906 13.976562 16.378906 13.976562 16.375 13.980469 C 16.351562 14.003906 16.324219 14.027344 16.300781 14.050781 L 16.160156 14.167969 C 13.203125 16.6875 9.542969 17.714844 6.039062 18.113281 L 5.25 15.269531 C 8.460938 14.957031 11.804688 14.101562 14.347656 11.898438 L 15.617188 10.601562 L 17.183594 9 L 17.203125 8.980469 C 18.035156 8.167969 19.074219 7.761719 20.136719 7.835938 C 21.175781 7.910156 22.121094 8.433594 22.792969 9.308594 C 22.855469 9.382812 22.902344 9.46875 22.945312 9.558594 L 26.613281 17.074219 L 27.761719 19.425781 L 27.90625 19.726562 L 28.335938 19.296875 C 31.117188 16.519531 34.738281 14.890625 38.628906 14.652344 "/></clipPath><clipPath id="0f05408417"><path d="M 56.675781 12 L 76.984375 12 L 76.984375 33.5 L 56.675781 33.5 Z M 56.675781 12 "/></clipPath><clipPath id="0330ccc704"><path d="M 76.949219 12.046875 L 71.457031 31.863281 C 71.332031 32.339844 71.089844 32.722656 70.730469 33.011719 C 70.367188 33.300781 69.9375 33.445312 69.445312 33.445312 L 64.261719 33.445312 C 63.746094 33.445312 63.308594 33.300781 62.945312 33.011719 C 62.585938 32.722656 62.351562 32.339844 62.25 31.863281 L 56.726562 12.046875 L 62.714844 12.046875 L 66 26.652344 C 66.082031 27.046875 66.164062 27.449219 66.25 27.863281 C 66.332031 28.277344 66.402344 28.683594 66.464844 29.074219 L 67.210938 29.074219 C 67.273438 28.683594 67.34375 28.277344 67.425781 27.863281 C 67.511719 27.449219 67.59375 27.046875 67.675781 26.652344 L 70.960938 12.046875 Z M 76.949219 12.046875 "/></clipPath><clipPath id="cef6aaf746"><path d="M 78.640625 11.902344 L 94.265625 11.902344 L 94.265625 33.589844 L 78.640625 33.589844 Z M 78.640625 11.902344 "/></clipPath><clipPath id="c5dd4ffc4c"><path d="M 79.273438 20.453125 L 92.824219 20.453125 L 92.824219 24.390625 L 79.273438 24.390625 Z M 83.519531 11.953125 L 87.195312 11.953125 C 88.449219 11.953125 89.675781 11.980469 90.886719 12.03125 C 92.097656 12.082031 93.207031 12.171875 94.21875 12.296875 L 93.941406 16.449219 L 85.941406 16.449219 C 85.488281 16.449219 85.136719 16.570312 84.886719 16.808594 C 84.636719 17.046875 84.515625 17.371094 84.515625 17.785156 L 84.515625 27.707031 C 84.515625 28.121094 84.640625 28.449219 84.886719 28.6875 C 85.132812 28.921875 85.488281 29.042969 85.941406 29.042969 L 93.941406 29.042969 L 94.222656 33.199219 C 93.207031 33.304688 92.097656 33.378906 90.890625 33.429688 C 89.679688 33.484375 88.449219 33.511719 87.199219 33.523438 C 85.949219 33.535156 84.722656 33.539062 83.523438 33.539062 C 82.097656 33.539062 80.9375 33.117188 80.050781 32.269531 C 79.160156 31.417969 78.714844 30.3125 78.714844 28.949219 L 78.714844 16.542969 C 78.714844 15.160156 79.160156 14.046875 80.050781 13.210938 C 80.941406 12.371094 82.09375 11.953125 83.519531 11.953125 "/></clipPath><clipPath id="ebcc23b868"><path d="M 96.207031 12 L 112.804688 12 L 112.804688 33.503906 L 96.207031 33.503906 Z M 96.207031 12 "/></clipPath><clipPath id="f51e99f5d3"><path d="M 112.457031 16.230469 L 96.546875 16.230469 L 96.546875 12.046875 L 112.457031 12.046875 Z M 112.738281 33.445312 L 96.269531 33.445312 L 96.269531 29.257812 L 112.738281 29.257812 Z M 106.039062 16.203125 L 112.457031 16.234375 L 102.6875 29.289062 L 96.269531 29.257812 Z M 106.039062 16.203125 "/></clipPath><clipPath id="edd5638168"><path d="M 114.132812 12.046875 L 132.335938 12.046875 L 132.335938 16.480469 L 114.132812 16.480469 Z M 120.335938 16.480469 L 126.164062 16.480469 L 126.164062 33.445312 L 120.335938 33.445312 Z M 120.335938 16.480469 "/></clipPath><clipPath id="238048a14b"><path d="M 130.765625 12 L 151.917969 12 L 151.917969 33.503906 L 130.765625 33.503906 Z M 130.765625 12 "/></clipPath><clipPath id="52117339e1"><path d="M 146.945312 28.359375 L 135.6875 28.359375 L 135.6875 24.171875 L 146.945312 24.171875 Z M 143.996094 12.046875 C 144.472656 12.046875 144.890625 12.179688 145.253906 12.449219 C 145.613281 12.71875 145.855469 13.089844 145.980469 13.566406 L 151.84375 33.445312 L 145.890625 33.445312 L 142.136719 18.683594 C 142.054688 18.332031 141.980469 17.953125 141.917969 17.550781 C 141.855469 17.144531 141.796875 16.769531 141.734375 16.417969 L 140.894531 16.417969 C 140.855469 16.769531 140.796875 17.144531 140.726562 17.550781 C 140.652344 17.953125 140.574219 18.332031 140.492188 18.683594 L 136.738281 33.445312 L 130.785156 33.445312 L 136.648438 13.566406 C 136.773438 13.089844 137.015625 12.71875 137.375 12.449219 C 137.738281 12.179688 138.15625 12.046875 138.632812 12.046875 Z M 143.996094 12.046875 "/></clipPath></defs><g id="4fb6645b44"><g clip-rule="nonzero" clip-path="url(#a7837a1d49)"><g clip-rule="nonzero" clip-path="url(#815e73c79f)"><path style=" stroke:none;fill-rule:nonzero;fill:#f88379;fill-opacity:1;" d="M 0.292969 0 L 43.386719 0 L 43.386719 45.453125 L 0.292969 45.453125 Z M 0.292969 0 "/></g></g><g clip-rule="nonzero" clip-path="url(#5cbce4052f)"><g clip-rule="nonzero" clip-path="url(#e1f0356575)"><path style=" stroke:none;fill-rule:nonzero;fill:#f88379;fill-opacity:1;" d="M 0.292969 0 L 43.386719 0 L 43.386719 45.453125 L 0.292969 45.453125 Z M 0.292969 0 "/></g></g><g clip-rule="nonzero" clip-path="url(#67cc9cedd9)"><g clip-rule="nonzero" clip-path="url(#98c67f6418)"><path style=" stroke:none;fill-rule:nonzero;fill:#f88379;fill-opacity:1;" d="M 0.292969 0 L 43.386719 0 L 43.386719 45.453125 L 0.292969 45.453125 Z M 0.292969 0 "/></g></g><g clip-rule="nonzero" clip-path="url(#44b77da2ae)"><g clip-rule="nonzero" clip-path="url(#7b9afe6896)"><path style=" stroke:none;fill-rule:nonzero;fill:#f88379;fill-opacity:1;" d="M 0.292969 0 L 43.386719 0 L 43.386719 45.453125 L 0.292969 45.453125 Z M 0.292969 0 "/></g></g><g clip-rule="nonzero" clip-path="url(#0f05408417)"><g clip-rule="nonzero" clip-path="url(#0330ccc704)"><path style=" stroke:none;fill-rule:nonzero;fill:#f88379;fill-opacity:1;" d="M 55.753906 10.980469 L 95.183594 10.980469 L 95.183594 34.511719 L 55.753906 34.511719 Z M 55.753906 10.980469 "/></g></g><g clip-rule="nonzero" clip-path="url(#cef6aaf746)"><g clip-rule="nonzero" clip-path="url(#c5dd4ffc4c)"><path style=" stroke:none;fill-rule:nonzero;fill:#f88379;fill-opacity:1;" d="M 55.753906 10.980469 L 95.183594 10.980469 L 95.183594 34.511719 L 55.753906 34.511719 Z M 55.753906 10.980469 "/></g></g><g clip-rule="nonzero" clip-path="url(#ebcc23b868)"><g clip-rule="nonzero" clip-path="url(#f51e99f5d3)"><path style=" stroke:none;fill-rule:nonzero;fill:#f88379;fill-opacity:1;" d="M 95.296875 11.074219 L 152.832031 11.074219 L 152.832031 34.417969 L 95.296875 34.417969 Z M 95.296875 11.074219 "/></g></g><g clip-rule="nonzero" clip-path="url(#edd5638168)"><path style=" stroke:none;fill-rule:nonzero;fill:#f88379;fill-opacity:1;" d="M 95.296875 11.074219 L 152.832031 11.074219 L 152.832031 34.417969 L 95.296875 34.417969 Z M 95.296875 11.074219 "/></g><g clip-rule="nonzero" clip-path="url(#238048a14b)"><g clip-rule="nonzero" clip-path="url(#52117339e1)"><path style=" stroke:none;fill-rule:nonzero;fill:#f88379;fill-opacity:1;" d="M 95.296875 11.074219 L 152.832031 11.074219 L 152.832031 34.417969 L 95.296875 34.417969 Z M 95.296875 11.074219 "/></g></g></g></svg>